# Blender v2.64 (sub 0) OBJ File: ''
# www.blender.org
v -5.000000 0.500001 -5.000000
v 5.000000 0.500001 -5.000000
v 5.000000 -0.499999 -5.000000
v -5.000000 -0.499999 -5.000000
v 5.000000 -0.500001 5.000000
v 5.000000 0.499999 5.000000
v -5.000000 0.499999 5.000000
v -5.000000 -0.500001 5.000000
vt 0.125000 0.937500
vt 0.000000 0.937500
vt 0.000000 0.812500
vt 0.125000 0.812500
vt 0.109375 0.937500
vt 0.109375 0.812500
vt 0.015625 0.812500
vt 0.015625 0.937500
vt 0.000000 0.921875
vt 0.125000 0.921875
vn 0.000000 1.000000 0.000000
vn 0.000000 0.000000 -1.000000
vn -0.000000 0.000000 1.000000
vn -1.000000 0.000000 -0.000000
vn 1.000000 -0.000000 0.000000
vn 0.000000 -1.000000 -0.000000
s off
f 2/1/1 1/2/1 7/3/1
f 2/1/1 7/3/1 6/4/1
f 1/5/2 2/6/2 3/4/2
f 1/5/2 3/4/2 4/1/2
f 5/3/3 6/7/3 7/8/3
f 5/3/3 7/8/3 8/2/3
f 1/9/4 4/2/4 8/1/4
f 1/9/4 8/1/4 7/10/4
f 2/7/5 6/8/5 5/2/5
f 2/7/5 5/2/5 3/3/5
f 3/1/6 5/4/6 8/3/6
f 3/1/6 8/3/6 4/2/6
